<svg version="1.1" xmlns="http://www.w3.org/2000/svg" viewBox="0 0 758.6230031948882 456.0000000000001" width="758.6230031948882" height="456.0000000000001">
  <!-- svg-source:excalidraw -->
  
  <defs>
    <style class="style-fonts">
      @font-face {
        font-family: "Virgil";
        src: url("https://excalidraw.com/Virgil.woff2");
      }
      @font-face {
        font-family: "Cascadia";
        src: url("https://excalidraw.com/Cascadia.woff2");
      }
    </style>
  </defs>
  <rect x="0" y="0" width="758.6230031948882" height="456.0000000000001" fill="#edf2ff"></rect><g stroke-linecap="round" transform="translate(264.9137380191694 10) rotate(0 126.41214057507989 218.00000000000006)"><path d="M32 0 M32 0 C90.78 1.66, 153.99 1.23, 220.82 0 M32 0 C104.69 -2.18, 178.53 -2.53, 220.82 0 M220.82 0 C240.38 1.6, 251.22 10.01, 252.82 32 M220.82 0 C243.74 0.64, 254.23 11.02, 252.82 32 M252.82 32 C253.18 113.09, 255.39 193.45, 252.82 404 M252.82 32 C251.61 151.33, 252.12 270.22, 252.82 404 M252.82 404 C254.55 423.94, 243.44 435.23, 220.82 436 M252.82 404 C252.17 425.36, 240 433.94, 220.82 436 M220.82 436 C183.23 434.51, 144.02 435.91, 32 436 M220.82 436 C166.49 438.19, 111.18 436.97, 32 436 M32 436 C11.77 437.16, -1.56 423.79, 0 404 M32 436 C9.2 435.35, -1.65 427.23, 0 404 M0 404 C-2.88 297.3, -2.48 189.68, 0 32 M0 404 C1.51 315.1, 1.79 225.18, 0 32 M0 32 C0.53 10.94, 11.33 1.23, 32 0 M0 32 C1.8 8.62, 9.89 1.58, 32 0" stroke="#000000" stroke-width="4" fill="none"></path></g><g transform="translate(305.30990415335464 400.38019169329084) rotate(0 93.32907348242816 16.019169329073463)"><text x="93.32907348242813" y="23.03833865814697" font-family="Virgil, Segoe UI Emoji" font-size="25.073482428115017px" fill="#000000" text-anchor="middle" style="white-space: pre;" direction="ltr">Crucial Details</text></g><g stroke-linecap="round" transform="translate(280.23642172523967 21.143769968051117) rotate(0 76.61341853035145 150.09265175718852)"><path d="M32 0 M32 0 C58.41 0.73, 81.55 -1.53, 121.23 0 M121.23 0 C143.48 1.54, 154.79 12.22, 153.23 32 M153.23 32 C152.13 116.63, 151.44 203.44, 153.23 268.19 M153.23 268.19 C151.7 288.26, 142.64 299.03, 121.23 300.19 M121.23 300.19 C92.75 299.67, 61.99 299.02, 32 300.19 M32 300.19 C12.32 300.3, -1.54 290.96, 0 268.19 M0 268.19 C1.44 178.58, 0.65 89.28, 0 32 M0 32 C-0.22 12.6, 10.9 -1.39, 32 0" stroke="#000000" stroke-width="4.5" fill="none" stroke-dasharray="8 12"></path></g><g transform="translate(294.1661341853035 155.21725239616615) rotate(0 62.68370607028754 16.019169329073492)"><text x="62.68370607028754" y="23.03833865814697" font-family="Virgil, Segoe UI Emoji" font-size="25.073482428115017px" fill="#000000" text-anchor="middle" style="white-space: pre;" direction="ltr">Main Idea</text></g><g stroke-linecap="round"><g transform="translate(626.8341006323977 168.48322683706073) rotate(0 -77.7026524389135 -8.736859907644998)"><path d="M-0.7 -0.52 C-13.96 -7.55, -52.94 -46.2, -78.91 -42.15 C-104.89 -38.1, -143.71 12.73, -156.54 23.77 M1.14 1.81 C-12.37 -5.01, -54.24 -44.46, -80.11 -40.6 C-105.97 -36.74, -141.45 14, -154.06 24.97" stroke="#000000" stroke-width="4" fill="none"></path></g><g transform="translate(626.8341006323977 168.48322683706073) rotate(0 -77.7026524389135 -8.736859907644998)"><path d="M-143.53 -3.55 C-146.64 5.65, -151.08 16.47, -153.92 23.47 M-143.35 -3.61 C-145.6 5.91, -150.06 14.87, -153.94 24.85" stroke="#000000" stroke-width="4" fill="none"></path></g><g transform="translate(626.8341006323977 168.48322683706073) rotate(0 -77.7026524389135 -8.736859907644998)"><path d="M-128.36 10.27 C-136.83 14.5, -146.62 20.45, -153.92 23.47 M-128.18 10.21 C-135.3 15.34, -144.73 19.78, -153.94 24.85" stroke="#000000" stroke-width="4" fill="none"></path></g></g><mask></mask><g transform="translate(544.5527156549521 176.111821086262) rotate(0 102.03514376996804 32.038338658146984)"><text x="102.03514376996806" y="23.03833865814697" font-family="Virgil, Segoe UI Emoji" font-size="25.073482428115017px" fill="#000000" text-anchor="middle" style="white-space: pre;" direction="ltr">need to know</text><text x="102.03514376996806" y="55.07667731629394" font-family="Virgil, Segoe UI Emoji" font-size="25.073482428115017px" fill="#000000" text-anchor="middle" style="white-space: pre;" direction="ltr">these eventually</text></g><g stroke-linecap="round"><g transform="translate(174.32746556525692 153.82987220447285) rotate(0 72.85671406979498 -23.92951107291705)"><path d="M0.24 0.46 C10.96 -7.63, 38.92 -43.42, 63.35 -47.77 C87.78 -52.12, 132.91 -29.27, 146.81 -25.63 M-1.1 -0.34 C9.54 -8.36, 37.85 -42.62, 62.36 -46.63 C86.87 -50.65, 131.85 -28, 145.95 -24.42" stroke="#000000" stroke-width="4" fill="none"></path></g><g transform="translate(174.32746556525692 153.82987220447285) rotate(0 72.85671406979498 -23.92951107291705)"><path d="M116.72 -24.53 C121.23 -24.78, 128.69 -24.83, 145.04 -22.55 M115.32 -25.07 C124.48 -23.52, 132.46 -24.81, 146.37 -24.01" stroke="#000000" stroke-width="4" fill="none"></path></g><g transform="translate(174.32746556525692 153.82987220447285) rotate(0 72.85671406979498 -23.92951107291705)"><path d="M123.73 -43.82 C126.84 -39.85, 132.77 -35.68, 145.04 -22.55 M122.32 -44.36 C129.39 -37.58, 135.47 -33.63, 146.37 -24.01" stroke="#000000" stroke-width="4" fill="none"></path></g></g><mask></mask><g transform="translate(10 164.2715654952077) rotate(0 112.8306709265176 32.038338658146984)"><text x="112.83067092651758" y="23.03833865814697" font-family="Virgil, Segoe UI Emoji" font-size="25.073482428115017px" fill="#000000" text-anchor="middle" style="white-space: pre;" direction="ltr">this should be the</text><text x="112.83067092651758" y="55.07667731629394" font-family="Virgil, Segoe UI Emoji" font-size="25.073482428115017px" fill="#000000" text-anchor="middle" style="white-space: pre;" direction="ltr">starting point</text></g></svg>